<svg width="25" height="24" viewBox="0 0 25 24" fill="none" xmlns="http://www.w3.org/2000/svg">
<path d="M3.5 9.75V19C3.5 20.1046 4.39543 21 5.5 21H19.5C20.6046 21 21.5 20.1046 21.5 19V9.75M3.5 9.75V9.7335C3.5 9.04392 3.85524 8.40298 4.44 8.0375L11.44 3.6625C12.0885 3.25716 12.9115 3.25716 13.56 3.6625L20.56 8.0375C21.1448 8.40297 21.5 9.04392 21.5 9.7335V9.75M3.5 9.75L10.0059 13.9324C10.3285 14.1397 10.7039 14.25 11.0874 14.25H13.9126C14.2961 14.25 14.6715 14.1397 14.9941 13.9324L21.5 9.75" stroke="black" stroke-linejoin="round"/>
</svg>
